<svg width="59" height="59" viewBox="0 0 59 59" fill="none" xmlns="http://www.w3.org/2000/svg">
<path d="M29.5001 59C13.2072 59 6.10352e-05 45.7929 6.10352e-05 29.5C6.10352e-05 13.2072 13.2072 0 29.5001 0C45.7929 0 59.0001 13.2072 59.0001 29.5C59.0001 45.7929 45.7929 59 29.5001 59ZM29.5001 53.1C35.7592 53.1 41.7619 50.6136 46.1878 46.1877C50.6136 41.7619 53.1001 35.7591 53.1001 29.5C53.1001 23.2409 50.6136 17.2381 46.1878 12.8123C41.7619 8.38642 35.7592 5.9 29.5001 5.9C23.241 5.9 17.2382 8.38642 12.8123 12.8123C8.38648 17.2381 5.90006 23.2409 5.90006 29.5C5.90006 35.7591 8.38648 41.7619 12.8123 46.1877C17.2382 50.6136 23.241 53.1 29.5001 53.1ZM29.5001 14.75C30.2825 14.75 31.0328 15.0608 31.586 15.614C32.1393 16.1673 32.4501 16.9176 32.4501 17.7V32.45C32.4501 33.2324 32.1393 33.9827 31.586 34.536C31.0328 35.0892 30.2825 35.4 29.5001 35.4C28.7177 35.4 27.9673 35.0892 27.4141 34.536C26.8609 33.9827 26.5501 33.2324 26.5501 32.45V17.7C26.5501 16.9176 26.8609 16.1673 27.4141 15.614C27.9673 15.0608 28.7177 14.75 29.5001 14.75ZM29.5001 44.25C28.7177 44.25 27.9673 43.9392 27.4141 43.386C26.8609 42.8327 26.5501 42.0824 26.5501 41.3C26.5501 40.5176 26.8609 39.7673 27.4141 39.214C27.9673 38.6608 28.7177 38.35 29.5001 38.35C30.2825 38.35 31.0328 38.6608 31.586 39.214C32.1393 39.7673 32.4501 40.5176 32.4501 41.3C32.4501 42.0824 32.1393 42.8327 31.586 43.386C31.0328 43.9392 30.2825 44.25 29.5001 44.25Z" fill="#946CF4"/>
</svg>
