<svg width="922" height="140" viewBox="0 0 922 140" fill="none" xmlns="http://www.w3.org/2000/svg">
<path d="M377.5 52V26.5H379.5H380V26V23H381V26V26.5H381.5H384.5V53.5H381.5H381V54V56.5H379.5H379V57V60H371H370.5V60.5V100.5H358.5V71V70.5H358H350.5V68.5V68H350H348V65V64.5H347.5H345.5V36.5H347.5H348V36V33H348.5V36V36.5H349H351.5V63.5V64H352H358H358.5V63.5V14.5H361.5H362V14V11.5H367.5V14V14.5H368H370.5V52V52.5H371H377H377.5V52Z" fill="#4A4453" stroke="#4A4453"/>
<path d="M568.5 79V53.5H570.5H571V53V50H572V53V53.5H572.5H575.5V80.5H572.5H572V81V83.5H570.5H570V84V87H562H561.5V87.5V127.5H549.5V98V97.5H549H541.5V95.5V95H541H539V92V91.5H538.5H536.5V63.5H538.5H539V63V60H539.5V63V63.5H540H542.5V90.5V91H543H549H549.5V90.5V41.5H552.5H553V41V38.5H558.5V41V41.5H559H561.5V79V79.5H562H568H568.5V79Z" fill="#4A4453" stroke="#4A4453"/>
</svg>
