<svg width="750" height="150" viewBox="0 0 750 150" fill="none" xmlns="http://www.w3.org/2000/svg">
<path d="M81.25 12.5V18.75H75V56.25H68.75V62.5H56.25V68.75H50V75H43.75V81.25H31.25V75H25V68.75H18.75V56.25H12.5V93.75H18.75V100H25V106.25H31.25V112.5H37.5V137.5H50V131.25H43.75V125H50V118.75H56.25V112.5H62.5V118.75H68.75V137.5H81.25V131.25H75V106.25H81.25V100H87.5V93.75H93.75V75H100V81.25H106.25V68.75H93.75V56.25H125V50H106.25V43.75H137.5V18.75H131.25V12.5M87.5 18.75H93.75V25H87.5V18.75Z" fill="#4A4453"/>
<path d="M231.25 12.5V18.75H225V56.25H218.75V62.5H206.25V68.75H200V75H193.75V81.25H181.25V75H175V68.75H168.75V56.25H162.5V93.75H168.75V100H175V106.25H181.25V112.5H187.5V137.5H200V131.25H193.75V125H200V118.75H206.25V112.5H212.5V118.75H218.75V137.5H231.25V131.25H225V106.25H231.25V100H237.5V93.75H243.75V75H250V81.25H256.25V68.75H243.75V56.25H275V50H256.25V43.75H287.5V18.75H281.25V12.5" fill="#4A4453"/>
<path d="M381.25 12.5V18.75H375V56.25H368.75V62.5H356.25V68.75H350V75H343.75V81.25H331.25V75H325V68.75H318.75V56.25H312.5V93.75H318.75V100H325V106.25H331.25V112.5H337.5V137.5H350V131.25H343.75V125H350V118.75H356.25V112.5H362.5H368.75V117V121.5H385V114H375V106.25H381.25V100H387.5V93.75H393.75V75H400V81.25H406.25V68.75H393.75V56.25H425V50H406.25V43.75H437.5V18.75H431.25V12.5M387.5 18.75H393.75V25H387.5V18.75Z" fill="#4A4453"/>
<path d="M531.25 12.5V18.75H525V56.25H518.75V62.5H506.25V68.75H500V75H493.75V81.25H481.25V75H475V68.75H468.75V56.25H462.5V93.75H468.75V100H475V106.25H481.25V112.5H487.5V118.75H493.75V125H506.25V118.75H500V112.5H506.25H512.5V118.75H518.75V137.5H531.25V131.25H525V106.25H531.25V100H537.5V93.75H543.75V75H550V81.25H556.25V68.75H543.75V56.25H575V50H556.25V43.75H587.5V18.75H581.25V12.5M537.5 18.75H543.75V25H537.5V18.75Z" fill="#4A4453"/>
<path d="M681.25 12.5V18.75H675V56.25H668.75V62.5H656.25V68.75H650V75H643.75V81.25H631.25V75H625V68.75H618.75V56.25H612.5V93.75H618.75V100H625V106.25H631.25V112.5H637.5V137.5H650V131.25H643.75V125H650V118.75H656.25V112.5H662.5H668.75V117V121.5H685V114H675V106.25H681.25V100H687.5V93.75H693.75V75H700V81.25H706.25V68.75H693.75V56.25H725V50H706.25V43.75H737.5V18.75H731.25V12.5M687.5 18.75H693.75V25H687.5V18.75Z" fill="#4A4453"/>
</svg>
