<svg width="195" height="117" viewBox="0 0 195 117" fill="none" xmlns="http://www.w3.org/2000/svg">
<g clip-path="url(#clip0_766_447)">
<path d="M139.869 116.187H56.5357C53.6711 116.187 51.3274 113.844 51.3274 110.979V27.6459C51.3274 24.7813 53.6711 22.4375 56.5357 22.4375H139.869C142.734 22.4375 145.077 24.7813 145.077 27.6459V110.979C145.077 113.844 142.734 116.187 139.869 116.187Z" fill="url(#paint0_linear_766_447)"/>
<path d="M85.1815 22.4375H111.223V35.4584H85.1815V22.4375Z" fill="#F5F5F5"/>
</g>
<path d="M89.4824 59.8525H100.962V64.4125H89.4824V67.7325H99.7624C101.722 67.7325 103.402 67.6925 105.042 67.2925V71.5725C103.402 72.0925 101.562 72.2925 99.4424 72.2925H84.0424V52.1325H101.802V56.6525H89.4824V59.8525ZM102.242 59.6525H108.362V51.6925H113.842V73.9325H108.362V64.4525H102.242V59.6525ZM85.7624 81.9725C85.7624 79.8925 86.6424 78.3725 88.2424 77.2525C90.8424 75.4125 95.2024 74.7725 100.202 74.7725C105.242 74.7725 109.602 75.4125 112.202 77.2525C113.802 78.3725 114.682 79.8925 114.682 81.9725C114.682 84.0925 113.802 85.6125 112.202 86.7325C109.602 88.5725 105.242 89.2125 100.202 89.2125C95.2024 89.2125 90.8424 88.5725 88.2424 86.7325C86.6424 85.6125 85.7624 84.0925 85.7624 81.9725ZM91.2424 81.9725C91.2424 82.5325 91.5224 83.0125 92.1224 83.3725C93.5224 84.2125 96.4824 84.5725 100.202 84.5725C103.922 84.5725 106.882 84.2125 108.322 83.3725C108.922 83.0125 109.202 82.5325 109.202 81.9725C109.202 81.4525 108.922 80.9725 108.322 80.6125C106.882 79.7725 103.922 79.4125 100.202 79.4125C96.4824 79.4125 93.5224 79.7725 92.1224 80.6125C91.5224 80.9725 91.2424 81.4525 91.2424 81.9725Z" fill="white"/>
<path d="M115.202 0.812516C118.185 1.29467 121.924 2.23674 124.088 4.48644C126.206 6.68791 126.853 11.8629 125.22 14.538C124.152 16.2874 121.045 16.2615 119.33 15.8446C117.619 15.4283 114.69 12.2864 116.283 10.4113C116.895 9.69063 117.989 9.71236 118.803 9.73861C121.848 9.83678 125.019 10.9303 127.625 12.4811C132.669 15.4833 136.292 20.8621 134.904 26.8922C134.457 28.8312 132.942 33.2982 130.48 31.3165" stroke="url(#paint1_linear_766_447)" stroke-linecap="round" stroke-dasharray="2 2"/>
<path d="M158.202 76.5756C163.599 75.7083 170.366 74.0137 174.282 69.9669C178.114 66.0069 179.285 56.6981 176.33 51.8861C174.397 48.7392 168.774 48.7858 165.672 49.5358C162.575 50.2846 157.275 55.9363 160.157 59.3092C161.265 60.6056 163.245 60.5665 164.718 60.5193C170.228 60.3427 175.966 58.3756 180.681 55.586C189.809 50.1856 196.365 40.5103 193.852 29.6632C193.044 26.1754 190.303 18.14 185.847 21.7048" stroke="url(#paint2_linear_766_447)" stroke-linecap="round" stroke-dasharray="2 2"/>
<path d="M37.3929 106.576C31.9964 105.708 25.2296 104.014 21.3133 99.9669C17.4811 96.0069 16.3108 86.6981 19.2656 81.8861C21.1979 78.7392 26.821 78.7858 29.9233 79.5358C33.0206 80.2846 38.3206 85.9363 35.4383 89.3092C34.3305 90.6056 32.3505 90.5665 30.8773 90.5193C25.3678 90.3427 19.6291 88.3756 14.9141 85.586C5.78609 80.1856 -0.769181 70.5103 1.74321 59.6632C2.55103 56.1754 5.29214 48.14 9.74811 51.7048" stroke="url(#paint3_linear_766_447)" stroke-linecap="round" stroke-dasharray="2 2"/>
<g clip-path="url(#clip1_766_447)">
<path d="M11.256 49.125C11.4018 47.8125 11.9851 46.7917 13.2976 46.2083" stroke="#ECE3FB" stroke-linecap="round" stroke-linejoin="round" stroke-dasharray="2 2"/>
<path d="M12.4226 48.25C14.2362 48.25 15.4851 47.291 15.631 44.75V44.1667H14.4602C11.8352 44.1667 10.9643 45.3333 10.9602 46.7917C10.9602 47.0833 10.9602 47.6667 11.5435 48.25H12.4185H12.4226Z" stroke="#ECE3FB" stroke-linecap="round" stroke-linejoin="round" stroke-dasharray="2 2"/>
</g>
<path d="M173.089 79.625C172.819 82.0625 171.735 83.9583 169.298 85.0417" stroke="url(#paint4_linear_766_447)" stroke-linecap="round" stroke-linejoin="round" stroke-dasharray="2 2"/>
<path d="M170.923 81.25C167.555 81.25 165.235 83.031 164.964 87.75V88.8333H167.139C172.014 88.8333 173.631 86.6667 173.639 83.9583C173.639 83.4167 173.639 82.3333 172.555 81.25H170.93H170.923Z" stroke="url(#paint5_linear_766_447)" stroke-linecap="round" stroke-linejoin="round" stroke-dasharray="2 2"/>
<path d="M182.923 74.875C183.235 77.6875 184.485 79.875 187.298 81.125" stroke="url(#paint6_linear_766_447)" stroke-linecap="round" stroke-linejoin="round" stroke-dasharray="2 2"/>
<path d="M185.423 76.75C189.309 76.75 191.985 78.805 192.298 84.25V85.5H189.789C184.164 85.5 182.298 83 182.289 79.875C182.289 79.25 182.289 78 183.539 76.75H185.414H185.423Z" stroke="url(#paint7_linear_766_447)" stroke-linecap="round" stroke-linejoin="round" stroke-dasharray="2 2"/>
<defs>
<linearGradient id="paint0_linear_766_447" x1="53.9237" y1="23.7188" x2="141.82" y2="114.227" gradientUnits="userSpaceOnUse">
<stop stop-color="#989393"/>
<stop offset="1" stop-color="#AFA8BA"/>
</linearGradient>
<linearGradient id="paint1_linear_766_447" x1="125.202" y1="0.812515" x2="125.202" y2="31.8125" gradientUnits="userSpaceOnUse">
<stop stop-color="#ECE3FB"/>
<stop offset="1" stop-color="#ECE3FB"/>
</linearGradient>
<linearGradient id="paint2_linear_766_447" x1="176.298" y1="20.8125" x2="176.298" y2="76.5756" gradientUnits="userSpaceOnUse">
<stop stop-color="#ECE3FB"/>
<stop offset="1" stop-color="#AFA8BA"/>
</linearGradient>
<linearGradient id="paint3_linear_766_447" x1="19.2977" y1="50.8125" x2="19.2977" y2="106.576" gradientUnits="userSpaceOnUse">
<stop stop-color="#ECE3FB"/>
<stop offset="1" stop-color="#AFA8BA"/>
</linearGradient>
<linearGradient id="paint4_linear_766_447" x1="171.194" y1="79.625" x2="171.194" y2="85.0417" gradientUnits="userSpaceOnUse">
<stop stop-color="#F7F5FC"/>
<stop offset="1" stop-color="#ECE3FB"/>
</linearGradient>
<linearGradient id="paint5_linear_766_447" x1="169.301" y1="81.25" x2="169.301" y2="88.8333" gradientUnits="userSpaceOnUse">
<stop stop-color="#F7F5FC"/>
<stop offset="1" stop-color="#ECE3FB"/>
</linearGradient>
<linearGradient id="paint6_linear_766_447" x1="185.11" y1="81.125" x2="185.11" y2="74.875" gradientUnits="userSpaceOnUse">
<stop stop-color="#ECE3FB"/>
<stop offset="1" stop-color="#AFA8BA"/>
</linearGradient>
<linearGradient id="paint7_linear_766_447" x1="187.293" y1="85.5" x2="187.293" y2="76.75" gradientUnits="userSpaceOnUse">
<stop stop-color="#ECE3FB"/>
<stop offset="1" stop-color="#AFA8BA"/>
</linearGradient>
<clipPath id="clip0_766_447">
<rect width="93.7499" height="93.7499" fill="white" transform="translate(51.3274 22.4375)"/>
</clipPath>
<clipPath id="clip1_766_447">
<rect width="7" height="7" fill="white" transform="translate(9.79761 43)"/>
</clipPath>
</defs>
</svg>
