<svg width="180" height="30" viewBox="0 0 180 30" fill="none" xmlns="http://www.w3.org/2000/svg">
<path d="M6.36719 0.71875L13.7109 23.0234H14.0234L21.4062 0.71875H26.9922L16.9922 29H10.7422L0.78125 0.71875H6.36719ZM52.0625 14.8594C52.0625 24 46.5156 29.3906 39.0938 29.3906C31.6719 29.3906 26.125 23.9609 26.125 14.8594C26.125 5.71875 31.6719 0.328125 39.0938 0.328125C46.5156 0.328125 52.0625 5.71875 52.0625 14.8594ZM46.9453 14.8594C46.9453 8.41406 43.7031 4.89844 39.0938 4.89844C34.4844 4.89844 31.2422 8.41406 31.2422 14.8594C31.2422 21.3047 34.4844 24.8203 39.0938 24.8203C43.7031 24.8203 46.9453 21.3047 46.9453 14.8594ZM73.6562 10.25C73.0703 6.85156 70.3359 4.89844 66.8984 4.89844C62.25 4.89844 59.0078 8.45312 59.0078 14.8594C59.0078 21.3438 62.2891 24.8203 66.8984 24.8203C70.2578 24.8203 72.9922 22.9453 73.6562 19.625H78.7734C77.9922 25.0547 73.5391 29.3906 66.8203 29.3906C59.3594 29.3906 53.8906 23.9609 53.8906 14.8594C53.8906 5.71875 59.4375 0.328125 66.8203 0.328125C73.0703 0.328125 77.9141 3.96094 78.7734 10.25H73.6562ZM84.3906 29H78.9609L88.9219 0.71875H95.1719L105.172 29H99.7422L97.3984 22.0078H86.7344L84.3906 29ZM88.1016 17.9062H96.0312L92.1641 6.5H91.9297L88.1016 17.9062ZM106.531 29V0.71875H117.352C123.484 0.71875 126.531 3.84375 126.531 8.0625C126.531 11.5 124.344 13.4141 121.57 14.0781V14.3516C124.578 14.5078 127.625 17.0078 127.625 21.3047C127.625 25.7188 124.461 29 117.977 29H106.531ZM117.195 24.7422C120.906 24.7422 122.469 23.1406 122.469 20.9141C122.469 18.375 120.477 16.4219 117.312 16.4219H111.609V24.7422H117.195ZM116.727 12.75C119.422 12.75 121.453 11.1875 121.453 8.6875C121.453 6.5 119.891 4.9375 116.844 4.9375H111.609V12.75H116.727ZM155 14.8594C155 24 149.453 29.3906 142.031 29.3906C134.609 29.3906 129.062 23.9609 129.062 14.8594C129.062 5.71875 134.609 0.328125 142.031 0.328125C149.453 0.328125 155 5.71875 155 14.8594ZM149.883 14.8594C149.883 8.41406 146.641 4.89844 142.031 4.89844C137.422 4.89844 134.18 8.41406 134.18 14.8594C134.18 21.3047 137.422 24.8203 142.031 24.8203C146.641 24.8203 149.883 21.3047 149.883 14.8594ZM160.773 0.71875L166.984 11.1094H167.219L173.508 0.71875H179.289L170.578 14.8594L179.445 29H173.547L167.219 18.6875H166.984L160.656 29H154.797L163.742 14.8594L154.914 0.71875H160.773Z" fill="url(#paint0_linear_421_24)"/>
<defs>
<linearGradient id="paint0_linear_421_24" x1="0" y1="15" x2="181" y2="15" gradientUnits="userSpaceOnUse">
<stop stop-color="#20B9F1"/>
<stop offset="1" stop-color="#946CF4"/>
</linearGradient>
</defs>
</svg>
