<svg xmlns="http://www.w3.org/2000/svg" x="0px" y="0px" width="32" height="32" viewBox="0,0,256,256">
<defs><linearGradient x1="6.997" y1="6.492" x2="40.749" y2="41.247" gradientUnits="userSpaceOnUse" id="color-1_v6bWcVuiEKvy_gr1"><stop offset="0" stopColor="#a17cf9"></stop><stop offset="1" stopColor="#946cf4"></stop></linearGradient></defs><g fill="none" fill-rule="nonzero" stroke="none" strokeWidth="1" strokeLinecap="butt" stroke-linejoin="miter" stroke-miterlimit="10" stroke-dasharray="" stroke-dashoffset="0" font-family="none" font-weight="none" font-size="none" text-anchor="none" style="mix-blend-mode: normal"><g transform="scale(5.33333,5.33333)"><path d="M40,42h-32c-1.1,0 -2,-0.9 -2,-2v-32c0,-1.1 0.9,-2 2,-2h32c1.1,0 2,0.9 2,2v32c0,1.1 -0.9,2 -2,2z" fill="url(#color-1_v6bWcVuiEKvy_gr1)"></path><path d="M19,6h10v5h-10z" fill="#ece3fb"></path><rect x="28" y="37" width="10" height="2" fill="#ffffff"></rect><path d="M38,32l-2,-2l-2,2h1v3h2v-3z" fill="#ffffff"></path><path d="M32,32l-2,-2l-2,2h1v3h2v-3z" fill="#ffffff"></path></g></g>
</svg>