<svg width="25" height="25" viewBox="0 0 25 25" fill="none" xmlns="http://www.w3.org/2000/svg">
<g clip-path="url(#clip0_841_987)">
<g filter="url(#filter0_i_841_987)">
<path d="M13.279 0.525003C11.4543 0.406031 9.62686 0.712767 7.94099 1.421C6.25233 2.1295 4.75174 3.2213 3.55799 4.61C2.36007 6.00133 1.49943 7.65037 1.04309 9.42873C0.58675 11.2071 0.547018 13.0668 0.926989 14.863C1.30402 16.6587 2.09119 18.3429 3.22699 19.784C4.36006 21.2228 5.81143 22.3791 7.46699 23.162C9.11975 23.9444 10.932 24.3314 12.7602 24.2921C14.5884 24.2529 16.3823 23.7886 18 22.936C18.0518 22.9095 18.1098 22.8973 18.1679 22.9004C18.226 22.9036 18.2823 22.9221 18.331 22.954C19.8672 23.9828 21.6793 24.5215 23.528 24.499C23.5717 24.4993 23.615 24.4909 23.6554 24.4743C23.6958 24.4577 23.7325 24.4332 23.7633 24.4024C23.7942 24.3715 23.8187 24.3348 23.8353 24.2944C23.8518 24.254 23.8603 24.2107 23.86 24.167V20.129C23.8605 20.0501 23.833 19.9736 23.7825 19.913C23.732 19.8524 23.6617 19.8117 23.584 19.798C23.2036 19.7374 22.8322 19.6303 22.478 19.479C22.412 19.4494 22.3575 19.3989 22.323 19.3353C22.2885 19.2717 22.2758 19.1985 22.287 19.127C22.2928 19.0793 22.3099 19.0337 22.337 18.994C23.4921 17.2554 24.1712 15.2444 24.3067 13.1615C24.4421 11.0786 24.0292 8.99655 23.109 7.123C22.1912 5.2523 20.7972 3.65616 19.067 2.495C17.3409 1.33642 15.3394 0.654414 13.265 0.518003L13.279 0.525003ZM5.34299 12.398C5.34192 10.9735 5.76108 9.58039 6.54799 8.393C7.33404 7.20954 8.45265 6.28507 9.76299 5.736C11.0727 5.18814 12.5162 5.04375 13.9085 5.32132C15.3008 5.59889 16.5785 6.28578 17.578 7.294C18.5809 8.30509 19.2633 9.58949 19.5399 10.9865C19.8165 12.3835 19.675 13.831 19.133 15.148C18.5909 16.4635 17.6712 17.5888 16.49 18.382C15.1119 19.3056 13.4556 19.7213 11.8047 19.5578C10.1538 19.3944 8.61116 18.6619 7.44099 17.486C6.09617 16.1335 5.34029 14.3043 5.33799 12.397L5.34299 12.398Z" fill="url(#paint0_linear_841_987)"/>
</g>
</g>
<defs>
<filter id="filter0_i_841_987" x="0.668701" y="0.5" width="23.6631" height="26.9997" filterUnits="userSpaceOnUse" color-interpolation-filters="sRGB">
<feFlood flood-opacity="0" result="BackgroundImageFix"/>
<feBlend mode="normal" in="SourceGraphic" in2="BackgroundImageFix" result="shape"/>
<feColorMatrix in="SourceAlpha" type="matrix" values="0 0 0 0 0 0 0 0 0 0 0 0 0 0 0 0 0 0 127 0" result="hardAlpha"/>
<feOffset dy="3"/>
<feGaussianBlur stdDeviation="2"/>
<feComposite in2="hardAlpha" operator="arithmetic" k2="-1" k3="1"/>
<feColorMatrix type="matrix" values="0 0 0 0 1 0 0 0 0 1 0 0 0 0 1 0 0 0 0.45 0"/>
<feBlend mode="normal" in2="shape" result="effect1_innerShadow_841_987"/>
</filter>
<linearGradient id="paint0_linear_841_987" x1="12.5003" y1="0.5" x2="12.5003" y2="24.4997" gradientUnits="userSpaceOnUse">
<stop stop-color="#946CF4"/>
<stop offset="1" stop-color="#AC89FF"/>
</linearGradient>
<clipPath id="clip0_841_987">
<rect width="24" height="24" fill="white" transform="translate(0.5 0.5)"/>
</clipPath>
</defs>
</svg>