<svg width="50" height="50" viewBox="0 0 50 50" fill="none" xmlns="http://www.w3.org/2000/svg">
<g id="Group 8">
<circle id="Ellipse 2" cx="25" cy="25" r="25" fill="#EB5252"/>
<path id="Vector" d="M38.75 12H31.25V10.125C31.25 9.2962 30.9208 8.50134 30.3347 7.91529C29.7487 7.32924 28.9538 7 28.125 7H21.875C21.0462 7 20.2513 7.32924 19.6653 7.91529C19.0792 8.50134 18.75 9.2962 18.75 10.125V12H11.25C10.9185 12 10.6005 12.1317 10.3661 12.3661C10.1317 12.6005 10 12.9185 10 13.25C10 13.5815 10.1317 13.8995 10.3661 14.1339C10.6005 14.3683 10.9185 14.5 11.25 14.5H12.5781L14.0625 38.3219C14.1734 40.4195 15.7812 42 17.8125 42H32.1875C34.2289 42 35.8047 40.4547 35.9375 38.3281L37.4219 14.5H38.75C39.0815 14.5 39.3995 14.3683 39.6339 14.1339C39.8683 13.8995 40 13.5815 40 13.25C40 12.9185 39.8683 12.6005 39.6339 12.3661C39.3995 12.1317 39.0815 12 38.75 12ZM20.0445 37H20C19.6761 37.0002 19.3647 36.8746 19.1315 36.6498C18.8983 36.4249 18.7615 36.1183 18.75 35.7945L18.125 18.2945C18.1132 17.963 18.2336 17.6404 18.4596 17.3976C18.6857 17.1548 18.9989 17.0118 19.3305 17C19.662 16.9882 19.9846 17.1086 20.2274 17.3346C20.4702 17.5607 20.6132 17.8739 20.625 18.2055L21.25 35.7055C21.256 35.8696 21.2295 36.0334 21.1721 36.1873C21.1147 36.3413 21.0276 36.4824 20.9156 36.6026C20.8037 36.7228 20.6691 36.8198 20.5196 36.888C20.3702 36.9562 20.2087 36.9943 20.0445 37ZM26.25 35.75C26.25 36.0815 26.1183 36.3995 25.8839 36.6339C25.6495 36.8683 25.3315 37 25 37C24.6685 37 24.3505 36.8683 24.1161 36.6339C23.8817 36.3995 23.75 36.0815 23.75 35.75V18.25C23.75 17.9185 23.8817 17.6005 24.1161 17.3661C24.3505 17.1317 24.6685 17 25 17C25.3315 17 25.6495 17.1317 25.8839 17.3661C26.1183 17.6005 26.25 17.9185 26.25 18.25V35.75ZM28.75 12H21.25V10.125C21.2491 10.0427 21.2646 9.96097 21.2957 9.88471C21.3267 9.80846 21.3727 9.73918 21.431 9.68096C21.4892 9.62273 21.5585 9.57673 21.6347 9.54566C21.711 9.51458 21.7927 9.49906 21.875 9.5H28.125C28.2073 9.49906 28.289 9.51458 28.3653 9.54566C28.4415 9.57673 28.5108 9.62273 28.569 9.68096C28.6273 9.73918 28.6733 9.80846 28.7043 9.88471C28.7354 9.96097 28.7509 10.0427 28.75 10.125V12ZM31.25 35.7945C31.2385 36.1183 31.1017 36.4249 30.8685 36.6498C30.6353 36.8746 30.3239 37.0002 30 37H29.9547C29.7906 36.9942 29.6292 36.956 29.4798 36.8878C29.3305 36.8196 29.196 36.7226 29.0841 36.6024C28.9722 36.4821 28.8851 36.341 28.8278 36.1872C28.7705 36.0333 28.744 35.8696 28.75 35.7055L29.375 18.2055C29.3808 18.0413 29.419 17.8799 29.4872 17.7305C29.5554 17.5811 29.6524 17.4466 29.7726 17.3346C29.8928 17.2227 30.0339 17.1355 30.1878 17.0781C30.3417 17.0207 30.5054 16.9942 30.6695 17C30.8337 17.0058 30.9951 17.044 31.1445 17.1122C31.2939 17.1804 31.4284 17.2774 31.5404 17.3976C31.6523 17.5178 31.7395 17.6589 31.7969 17.8128C31.8543 17.9667 31.8808 18.1304 31.875 18.2945L31.25 35.7945Z" fill="white"/>
</g>
</svg>
