<svg width="48" height="28" viewBox="0 0 48 28" fill="none" xmlns="http://www.w3.org/2000/svg">
<path d="M47.1892 18.7754C47.5894 19.156 47.6052 19.789 47.2246 20.1891L41.0217 26.7102C40.641 27.1104 40.0081 27.1262 39.6079 26.7455C39.2077 26.3649 39.1919 25.7319 39.5725 25.3318L45.0862 19.5353L39.2897 14.0216C38.8896 13.641 38.8737 13.008 39.2544 12.6078C39.635 12.2077 40.268 12.1918 40.6682 12.5725L47.1892 18.7754ZM1.82517 0.435054C6.4437 7.18173 10.6189 11.8036 17.045 14.7044C23.5101 17.6229 32.3725 18.8529 46.475 18.5002L46.525 20.4996C32.3389 20.8543 23.1071 19.6353 16.2221 16.5273C9.29816 13.4018 4.86762 8.41998 0.174829 1.56482L1.82517 0.435054Z" fill="#946CF4"/>
</svg>
