<svg width="282" height="153" viewBox="0 0 282 153" fill="none" xmlns="http://www.w3.org/2000/svg">
<rect y="3.3584" width="280" height="149" rx="8" transform="rotate(-0.687234 0 3.3584)" fill="#F7F5FC"/>
<path d="M26.5554 49.9964L26.5999 53.7012L28.4318 53.6792L28.4426 54.5815L26.6107 54.6035L26.663 58.9645L25.5967 58.9773L25.4891 50.0092L26.5554 49.9964ZM27.2478 60.9811L27.2586 61.8833L19.0971 61.9812L19.0508 58.126L20.1035 58.1134L20.1389 61.0663L27.2478 60.9811ZM20.4822 50.9306C22.3004 50.9088 23.6823 52.1228 23.7171 53.8862C23.7246 55.6499 22.3723 56.8967 20.554 56.9185C18.7358 56.9403 17.3403 55.7265 17.3328 53.9628C17.298 52.1994 18.664 50.9524 20.4822 50.9306ZM20.4935 51.8739C19.2905 51.8883 18.3574 52.7473 18.3855 53.9501C18.3862 55.1533 19.3397 55.9896 20.5427 55.9752C21.7731 55.9604 22.6789 55.1018 22.6644 53.8988C22.65 52.6958 21.7239 51.8592 20.4935 51.8739ZM30.9801 50.6953L31.0398 55.6715C33.1111 55.6535 34.5659 55.5404 36.2295 55.1717L36.3769 56.0587C34.6176 56.4353 33.0878 56.563 30.8866 56.5758L29.957 56.5869L29.8865 50.7084L30.9801 50.6953ZM39.2283 49.8444L39.3179 57.3087L38.2379 57.3216L38.2018 54.314L34.7157 54.3559L34.7056 53.5083L38.1916 53.4664L38.1761 52.1677L34.69 52.2095L34.6796 51.3483L38.1657 51.3064L38.1483 49.8573L39.2283 49.8444ZM35.2861 57.4527C37.8152 57.4224 39.3704 58.2651 39.3877 59.7143C39.405 61.1497 37.8702 62.0022 35.3412 62.0462C32.8119 62.0628 31.2571 61.2474 31.2399 59.812C31.2225 58.3629 32.757 57.4831 35.2861 57.4527ZM35.2964 58.314C33.4372 58.3363 32.2817 58.8971 32.3062 59.7992C32.3031 60.6743 33.4715 61.1935 35.3307 61.1712C37.19 61.1489 38.3319 60.602 38.3214 59.7271C38.3106 58.8248 37.1557 58.2917 35.2964 58.314Z" fill="#946CF4"/>
<path d="M23.1783 18.0814C19.3126 18.1278 16.2164 21.2992 16.2628 25.1649C16.3092 29.0308 19.4806 32.1268 23.3462 32.0804C27.2122 32.0341 30.3082 28.8629 30.2618 24.997C30.2154 21.1313 27.0442 18.0351 23.1783 18.0814ZM23.3359 31.2193C19.9589 31.2598 17.1782 28.5314 17.1377 25.1544C17.0972 21.7773 19.8118 18.9969 23.1888 18.9564C26.5659 18.9158 29.3463 21.6304 29.3868 25.0075C29.4274 28.3845 26.713 31.1788 23.3359 31.2193ZM26.025 22.4863L21.9678 26.6681L20.0963 24.8409C19.9234 24.6721 19.6465 24.6754 19.4775 24.8483C19.3087 25.0212 19.312 25.2981 19.4849 25.4669L21.6761 27.6064C21.849 27.7749 22.1259 27.7716 22.2949 27.5989C22.3144 27.579 22.331 27.5574 22.346 27.5349L26.6515 23.0976C26.82 22.9248 26.8167 22.6478 26.644 22.4789C26.4709 22.3101 26.194 22.3134 26.025 22.4863Z" fill="#946CF4"/>
<path d="M40.0796 25.0589L40.1255 28.879L39.1177 28.8911L39.016 20.4073L40.0237 20.3952L40.0611 23.5122L40.1431 23.5112C40.4282 22.8515 40.9973 22.4227 42.005 22.4107C43.3057 22.395 44.1821 23.158 44.2017 24.7868L44.2502 28.8295L43.2424 28.8416L43.1948 24.8692C43.1828 23.8732 42.6252 23.3056 41.7112 23.3166C40.762 23.328 40.0664 23.9575 40.0796 25.0589ZM48.5405 28.907C46.7008 28.929 45.5485 27.642 45.525 25.6851C45.5016 23.7282 46.6336 22.3551 48.3679 22.3343C49.7037 22.3183 51.1197 23.1217 51.1479 25.477L51.153 25.8988L46.5362 25.9542C46.5992 27.3012 47.3931 28.03 48.5298 28.0164C49.2914 28.0073 49.7679 27.6734 49.9975 27.2722L51.0756 27.2592C50.7824 28.2238 49.8529 28.8912 48.5405 28.907ZM46.5376 25.0987L50.1233 25.0557C50.1105 23.9893 49.4214 23.2124 48.3785 23.2249C47.2771 23.2381 46.5844 24.1137 46.5376 25.0987ZM53.4055 20.2347L53.5073 28.7185L52.4996 28.7305L52.3978 20.2468L53.4055 20.2347ZM56.0186 20.2033L56.1204 28.6871L55.1127 28.6992L55.0109 20.2154L56.0186 20.2033ZM60.3287 28.7656C58.5944 28.7864 57.407 27.4997 57.3833 25.5194C57.3595 23.5391 58.5156 22.2126 60.2498 22.1918C61.9724 22.1711 63.1482 23.4696 63.1719 25.45C63.1957 27.4303 62.0512 28.7449 60.3287 28.7656ZM60.318 27.875C61.5952 27.8597 62.1794 26.7276 62.1642 25.462C62.149 24.1965 61.5378 23.067 60.2605 23.0824C58.9598 23.098 58.3758 24.2418 58.391 25.5073C58.4062 26.7728 59.0173 27.8906 60.318 27.875ZM68.0545 30.9348L67.9197 19.6973L70.4039 19.6675L70.4139 20.4995L68.8788 20.5179L68.9935 30.0797L70.5285 30.0613L70.5387 30.905L68.0545 30.9348ZM72.5968 24.6689L72.6427 28.4889L71.6349 28.501L71.5332 20.0173L72.5409 20.0052L72.5783 23.1221L72.6603 23.1211C72.9454 22.4614 73.5145 22.0327 74.5222 22.0206C75.8229 22.005 76.6993 22.768 76.7189 24.3968L76.7674 28.4395L75.7596 28.4515L75.712 24.4792C75.7 23.4831 75.1424 22.9156 74.2284 22.9265C73.2792 22.9379 72.5836 23.5674 72.5968 24.6689ZM81.0577 28.5169C79.2179 28.539 78.0657 27.2519 78.0422 25.295C78.0188 23.3381 79.1508 21.9651 80.8851 21.9443C82.2209 21.9283 83.6369 22.7316 83.6651 25.0869L83.6702 25.5088L79.0533 25.5642C79.1164 26.9112 79.9103 27.64 81.047 27.6263C81.8086 27.6172 82.2851 27.2833 82.5147 26.8821L83.5928 26.8692C83.2996 27.8337 82.3701 28.5012 81.0577 28.5169ZM79.0548 24.7086L82.6405 24.6656C82.6277 23.5993 81.9386 22.8223 80.8957 22.8348C79.7943 22.8481 79.1016 23.7236 79.0548 24.7086ZM85.9227 19.8446L86.0245 28.3284L85.0168 28.3405L84.915 19.8567L85.9227 19.8446ZM88.5358 19.8133L88.6376 28.2971L87.6299 28.3092L87.5281 19.8254L88.5358 19.8133ZM92.8459 28.3755C91.1116 28.3963 89.9242 27.1097 89.9005 25.1293C89.8767 23.149 91.0328 21.8226 92.767 21.8018C94.4896 21.7811 95.6654 23.0796 95.6891 25.0599C95.7129 27.0402 94.5684 28.3548 92.8459 28.3755ZM92.8352 27.4849C94.1124 27.4696 94.6966 26.3375 94.6814 25.072C94.6662 23.8065 94.055 22.677 92.7777 22.6923C91.477 22.7079 90.893 23.8517 90.9082 25.1173C90.9234 26.3828 91.5345 27.5005 92.8352 27.4849ZM98.9312 30.5644L96.447 30.5942L96.4368 29.7505L97.9719 29.7321L97.8572 20.1703L96.3221 20.1887L96.3122 19.3567L98.7964 19.3269L98.9312 30.5644Z" fill="#202020"/>
<path d="M254.171 16.1232C251.499 16.1553 249.506 18.0206 249.531 20.1167L249.545 21.2506C249.607 21.2438 249.67 21.24 249.732 21.2393L251.232 21.2213C251.531 21.2178 251.818 21.3329 252.032 21.5413C252.245 21.7497 252.367 22.0344 252.371 22.3328L252.416 26.0825C252.419 26.3808 252.304 26.6684 252.096 26.8819C251.887 27.0954 251.603 27.2173 251.304 27.2209L249.804 27.2389C249.307 27.2449 248.828 27.0531 248.472 26.7057C248.116 26.3583 247.913 25.8838 247.907 25.3865L247.88 23.1367C247.874 22.6117 248.083 22.1352 248.426 21.7913L248.407 20.1302C248.372 17.2564 251.032 15.0358 254.158 14.9983C257.284 14.9608 259.996 17.1169 260.031 19.9907L260.051 21.6519C260.231 21.824 260.375 22.0305 260.475 22.2593C260.574 22.488 260.627 22.7344 260.629 22.9838L260.656 25.2336C260.659 25.4798 260.613 25.7242 260.522 25.9528C260.43 26.1814 260.295 26.3897 260.123 26.5659C259.951 26.7421 259.746 26.8827 259.519 26.9796C259.293 27.0766 259.05 27.128 258.804 27.131L257.304 27.1489C257.005 27.1525 256.718 27.0374 256.504 26.829C256.291 26.6206 256.169 26.3359 256.165 26.0375L256.12 22.2878C256.117 21.9894 256.232 21.7019 256.44 21.4884C256.649 21.2749 256.934 21.153 257.232 21.1494L258.732 21.1314C258.795 21.1306 258.858 21.1329 258.919 21.1381L258.906 20.0042C258.881 17.9081 256.844 16.0912 254.171 16.1232Z" fill="#222222"/>
<path d="M18.2581 136.149L18.2406 135.505L20.6221 132.937C21.4512 132.038 21.8458 131.555 21.838 130.901C21.8293 130.178 21.2084 129.707 20.4174 129.716C19.5776 129.726 19.047 130.27 19.0565 131.061L18.2265 131.071C18.2017 129.821 19.1584 128.97 20.4376 128.954C21.7168 128.939 22.645 129.787 22.6582 130.891C22.6677 131.682 22.304 132.301 21.0696 133.605L19.4686 135.295L19.4693 135.353L22.8382 135.313L22.8476 136.094L18.2581 136.149ZM26.4423 136.148C24.8701 136.167 23.9559 134.86 23.9282 132.546C23.9006 130.251 24.8025 128.902 26.3551 128.883C27.9077 128.865 28.8417 130.192 28.8692 132.486C28.897 134.801 28.0046 136.13 26.4423 136.148ZM26.4329 135.367C27.4484 135.355 28.0318 134.323 28.0099 132.497C27.988 130.671 27.3798 129.633 26.3642 129.645C25.3487 129.657 24.7558 130.709 24.7777 132.535C24.7996 134.361 25.4076 135.38 26.4329 135.367ZM30.0834 136.007L30.0659 135.363L32.4474 132.795C33.2765 131.896 33.6711 131.413 33.6633 130.759C33.6546 130.036 33.0337 129.565 32.2427 129.575C31.4029 129.585 30.8723 130.128 30.8818 130.919L30.0518 130.929C30.027 129.679 30.9837 128.828 32.2629 128.812C33.5421 128.797 34.4703 129.645 34.4835 130.749C34.493 131.54 34.1293 132.159 32.8949 133.463L31.2939 135.153L31.2946 135.211L34.6635 135.171L34.6729 135.952L30.0834 136.007ZM38.3945 136.005C36.9884 136.022 35.9736 135.282 35.9113 134.16L36.7999 134.149C36.8568 134.822 37.5356 135.234 38.3754 135.224C39.3031 135.213 39.9805 134.697 39.9717 133.965C39.9625 133.193 39.3407 132.654 38.2373 132.667L37.6612 132.674L37.6519 131.902L38.228 131.895C39.0873 131.885 39.6773 131.4 39.6685 130.667C39.66 129.964 39.1368 129.492 38.336 129.501C37.5841 129.51 36.8959 129.939 36.8651 130.632L36.0156 130.643C36.0509 129.519 37.077 128.755 38.3367 128.74C39.6842 128.723 40.515 129.592 40.5174 130.608C40.5368 131.409 40.0752 132.01 39.3356 132.224L39.3362 132.273C40.2558 132.408 40.83 133.056 40.831 133.954C40.8547 135.116 39.8007 135.988 38.3945 136.005ZM45.1232 131.91L45.1325 132.682L42.037 132.719L42.0278 131.948L45.1232 131.91ZM48.7649 135.881C47.1927 135.9 46.2785 134.592 46.2508 132.278C46.2232 129.983 47.1251 128.634 48.6777 128.616C50.2303 128.597 51.1643 129.924 51.1918 132.219C51.2196 134.533 50.3273 135.862 48.7649 135.881ZM48.7555 135.1C49.7711 135.087 50.3544 134.055 50.3325 132.229C50.3106 130.403 49.7024 129.365 48.6869 129.377C47.6713 129.389 47.0784 130.442 47.1003 132.268C47.1222 134.094 47.7302 135.112 48.7555 135.1ZM54.6734 128.544C55.8941 128.539 57.2505 129.255 57.2817 131.862C57.3118 134.372 56.3034 135.79 54.6434 135.81C53.4032 135.825 52.5152 135.074 52.326 133.953L53.1951 133.943C53.3589 134.576 53.843 135.038 54.634 135.029C55.7862 135.015 56.4774 134.011 56.4665 132.292L56.3689 132.293C55.9658 132.884 55.3255 133.243 54.5736 133.252C53.3042 133.267 52.2477 132.313 52.2313 130.946C52.2155 129.628 53.1695 128.552 54.6734 128.544ZM54.6826 129.315C53.755 129.326 53.0703 130.057 53.0905 130.926C53.1011 131.805 53.7636 132.49 54.6913 132.479C55.6092 132.468 56.3227 131.698 56.3127 130.868C56.303 130.057 55.6201 129.304 54.6826 129.315ZM61.5381 131.714L61.5473 132.485L58.4518 132.522L58.4426 131.751L61.5381 131.714ZM65.1797 135.684C63.6076 135.703 62.6934 134.395 62.6656 132.081C62.6381 129.786 63.5399 128.437 65.0926 128.419C66.6452 128.4 67.5791 129.727 67.6067 132.022C67.6344 134.336 66.7421 135.665 65.1797 135.684ZM65.1703 134.903C66.1859 134.89 66.7693 133.858 66.7473 132.032C66.7254 130.206 66.1173 129.168 65.1017 129.18C64.0861 129.193 63.4933 130.245 63.5152 132.071C63.5371 133.897 64.145 134.915 65.1703 134.903ZM71.2828 135.611C70.0522 135.606 68.6959 134.899 68.6646 132.282C68.6346 129.783 69.643 128.364 71.3031 128.344C72.5432 128.329 73.4214 129.081 73.6203 130.192L72.7512 130.202C72.5777 129.579 72.1034 129.116 71.3124 129.125C70.1504 129.139 69.469 130.144 69.4894 131.843L69.5773 131.842C69.9804 131.251 70.6207 130.892 71.3823 130.883C72.642 130.867 73.6986 131.831 73.715 133.198C73.7309 134.526 72.7672 135.603 71.2828 135.611ZM71.2735 134.839C72.1914 134.828 72.8663 134.097 72.8655 133.218C72.8453 132.349 72.1825 131.644 71.2549 131.656C70.3272 131.667 69.6234 132.427 69.6237 133.267C69.6337 134.097 70.3263 134.851 71.2735 134.839Z" fill="black"/>
</svg>
