<svg width="282" height="153" viewBox="0 0 282 153" fill="none" xmlns="http://www.w3.org/2000/svg">
<rect y="3.35838" width="280" height="149" rx="8" transform="rotate(-0.687234 0 3.35838)" fill="#F7F5FC"/>
<path d="M28.1978 55.8286L28.2084 56.7173L17.135 56.8501L17.1243 55.9615L28.1978 55.8286ZM27.2167 53.8305L27.2272 54.7054L23.0029 54.7561L22.9535 50.6412L27.0685 50.5918L27.079 51.4667L24.044 51.5032L24.0724 53.8682L27.2167 53.8305ZM22.27 50.6494L22.2805 51.5243L19.2045 51.5612L19.2329 53.9263C20.2854 53.9 21.3166 53.8124 22.4686 53.532L22.6023 54.4191C21.2252 54.7364 20.0636 54.7914 18.8469 54.806L18.1497 54.8143L18.1004 50.6994L22.27 50.6494ZM23.2484 58.1304C23.2681 59.7709 25.1965 60.9509 27.4149 61.2388L27.015 62.0913C25.1657 61.8059 23.467 60.958 22.7195 59.627C22.0042 60.9756 20.3262 61.8639 18.4843 62.1937L18.064 61.351C20.2613 61.0101 22.1745 59.784 22.1548 58.1435L22.15 57.747L23.2437 57.7339L23.2484 58.1304Z" fill="#946CF4"/>
<path d="M23.1604 16.5815C19.2947 16.6279 16.1985 19.7993 16.2448 23.665C16.2912 27.5309 19.4626 30.6269 23.3283 30.5805C27.1942 30.5342 30.2902 27.363 30.2438 23.4971C30.1975 19.6314 27.0263 16.5352 23.1604 16.5815ZM23.318 29.7194C19.9409 29.7599 17.1603 27.0315 17.1198 23.6545C17.0793 20.2774 19.7938 17.497 23.1709 17.4565C26.5479 17.4159 29.3284 20.1305 29.3689 23.5076C29.4094 26.8846 26.695 29.6789 23.318 29.7194ZM26.0071 20.9864L21.9499 25.1682L20.0783 23.341C19.9054 23.1722 19.6285 23.1755 19.4595 23.3484C19.2907 23.5213 19.2941 23.7982 19.4669 23.967L21.6582 26.1065C21.831 26.275 22.108 26.2717 22.277 26.099C22.2964 26.0791 22.313 26.0575 22.3281 26.035L26.6335 21.5977C26.8021 21.4249 26.7988 21.1479 26.6261 20.9789C26.453 20.8102 26.1761 20.8135 26.0071 20.9864Z" fill="#222222"/>
<path d="M48.3392 18.1371L48.3808 21.6095L50.117 21.5887L50.1321 22.8464L48.3959 22.8672L48.4464 27.0778L46.929 27.096L46.8217 18.1553L48.3392 18.1371ZM44.6603 19.2067L44.6749 20.4234L40.642 20.4718L40.6824 23.8348C43.0065 23.8138 44.2974 23.7162 45.7633 23.391L45.9421 24.6194C44.3328 24.9532 42.8846 25.0526 40.1915 25.0849L39.1935 25.0969L39.1236 19.2731L44.6603 19.2067ZM48.9619 29.0132L48.9766 30.2436L40.569 30.3444L40.5197 26.2295L42.0371 26.2113L42.0717 29.0959L48.9619 29.0132ZM54.0781 18.9707C55.7528 18.9506 57.0067 20.3302 57.2525 22.5832L59.6039 22.555L59.5493 18.0026L61.0531 17.9846L61.2015 30.3567L59.6977 30.3748L59.6187 23.7854L57.281 23.8134C57.1455 26.201 55.9054 27.6857 54.1829 27.7064C52.3236 27.7287 50.9911 26.0629 50.9588 23.3697C50.9268 20.7039 52.2189 18.993 54.0781 18.9707ZM54.0945 20.3377C53.0692 20.35 52.3853 21.4657 52.4216 23.3522C52.4307 25.2526 53.1412 26.3516 54.1665 26.3393C55.1918 26.327 55.8621 25.2114 55.8529 23.311C55.8166 21.4246 55.1198 20.3254 54.0945 20.3377ZM66.842 31.4493L66.7072 20.2118L69.1914 20.182L69.2014 21.014L67.6663 21.0324L67.781 30.5942L69.3161 30.5758L69.3262 31.4195L66.842 31.4493ZM71.2751 19.9813L71.293 21.4812L74.328 21.4447L74.31 19.9449L75.224 19.9339L75.2784 24.4687L70.4272 24.5269L70.3728 19.9921L71.2751 19.9813ZM71.3205 23.7661L74.3554 23.7297L74.3366 22.1595L71.3016 22.1959L71.3205 23.7661ZM78.0661 19.4545L78.0932 21.716L79.6634 21.6972L79.6727 22.4706L78.1025 22.4894L78.1308 24.8447L77.2168 24.8557L77.1521 19.4654L78.0661 19.4545ZM78.1367 25.3368L78.1669 27.8562L72.4485 27.9248L72.4623 29.0731L78.5673 28.9999L78.5763 29.7499L71.569 29.8339L71.5378 27.2325L77.2445 27.1641L77.2315 26.086L71.5015 26.1548L71.4926 25.4165L78.1367 25.3368ZM85.0411 19.6052C87.3026 19.5781 88.7292 20.2876 88.7442 21.5414C88.759 22.7718 87.3497 23.5036 85.0882 23.5307C82.8266 23.5578 81.3884 22.8602 81.3737 21.6298C81.3586 20.376 82.7795 19.6323 85.0411 19.6052ZM85.0499 20.3434C83.3625 20.3637 82.3018 20.8452 82.3228 21.6184C82.3203 22.3802 83.3919 22.8127 85.0794 22.8042C86.7432 22.7725 87.8159 22.3143 87.8068 21.5526C87.7975 20.7792 86.7139 20.3235 85.0499 20.3434ZM88.7062 26.1828L88.7472 29.6044L81.5758 29.6904L81.5348 26.2688L88.7062 26.1828ZM82.4577 26.9961L82.4808 28.9295L87.8359 28.8653L87.8127 26.9318L82.4577 26.9961ZM89.8447 24.376L89.8539 25.1377L80.3624 25.2515L80.3532 24.4899L89.8447 24.376ZM93.1838 31.1333L90.6996 31.1631L90.6895 30.3195L92.2246 30.301L92.1099 20.7392L90.5748 20.7576L90.5648 19.9257L93.049 19.8959L93.1838 31.1333Z" fill="#202020"/>
<path d="M254.171 16.1232C251.499 16.1553 249.506 18.0206 249.532 20.1167L249.545 21.2506C249.607 21.2438 249.67 21.24 249.733 21.2393L251.232 21.2213C251.531 21.2178 251.818 21.3328 252.032 21.5413C252.245 21.7497 252.367 22.0344 252.371 22.3328L252.416 26.0825C252.419 26.3808 252.304 26.6684 252.096 26.8819C251.887 27.0954 251.603 27.2173 251.304 27.2209L249.804 27.2389C249.307 27.2449 248.828 27.0531 248.472 26.7057C248.116 26.3583 247.913 25.8838 247.907 25.3865L247.88 23.1367C247.874 22.6117 248.083 22.1352 248.427 21.7913L248.407 20.1302C248.372 17.2564 251.032 15.0358 254.158 14.9983C257.284 14.9608 259.996 17.1169 260.031 19.9907L260.051 21.6518C260.231 21.824 260.375 22.0305 260.475 22.2593C260.574 22.488 260.627 22.7344 260.629 22.9838L260.656 25.2336C260.659 25.4798 260.614 25.7242 260.522 25.9528C260.431 26.1814 260.295 26.3897 260.123 26.5659C259.951 26.7421 259.746 26.8827 259.52 26.9796C259.293 27.0766 259.05 27.128 258.804 27.1309L257.304 27.1489C257.006 27.1525 256.718 27.0374 256.505 26.829C256.291 26.6206 256.169 26.3359 256.166 26.0375L256.121 22.2878C256.117 21.9894 256.232 21.7019 256.441 21.4884C256.649 21.2749 256.934 21.1529 257.232 21.1494L258.732 21.1314C258.795 21.1306 258.858 21.1329 258.919 21.1381L258.906 20.0042C258.881 17.9081 256.844 16.0912 254.171 16.1232Z" fill="#222222"/>
<path d="M18.2581 136.149L18.2406 135.505L20.6221 132.937C21.4512 132.038 21.8458 131.555 21.838 130.901C21.8293 130.178 21.2084 129.707 20.4174 129.716C19.5776 129.726 19.047 130.27 19.0565 131.061L18.2265 131.071C18.2017 129.821 19.1584 128.97 20.4376 128.954C21.7168 128.939 22.645 129.787 22.6582 130.891C22.6677 131.682 22.304 132.301 21.0696 133.605L19.4686 135.295L19.4693 135.353L22.8382 135.313L22.8476 136.094L18.2581 136.149ZM26.4423 136.148C24.8701 136.167 23.9559 134.86 23.9282 132.546C23.9006 130.251 24.8025 128.902 26.3551 128.883C27.9077 128.865 28.8417 130.192 28.8692 132.486C28.897 134.801 28.0046 136.13 26.4423 136.148ZM26.4329 135.367C27.4484 135.355 28.0318 134.323 28.0099 132.497C27.988 130.671 27.3798 129.633 26.3642 129.645C25.3487 129.657 24.7558 130.709 24.7777 132.535C24.7996 134.361 25.4076 135.38 26.4329 135.367ZM30.0834 136.007L30.0659 135.363L32.4474 132.795C33.2765 131.896 33.6711 131.413 33.6633 130.759C33.6546 130.036 33.0337 129.565 32.2427 129.574C31.4029 129.585 30.8723 130.128 30.8818 130.919L30.0518 130.929C30.027 129.679 30.9837 128.828 32.2629 128.812C33.5421 128.797 34.4703 129.645 34.4835 130.749C34.493 131.54 34.1293 132.159 32.8949 133.463L31.2939 135.153L31.2946 135.211L34.6635 135.171L34.6729 135.952L30.0834 136.007ZM38.3945 136.005C36.9884 136.022 35.9736 135.282 35.9113 134.16L36.7999 134.149C36.8568 134.822 37.5356 135.234 38.3754 135.224C39.3031 135.213 39.9805 134.697 39.9717 133.965C39.9625 133.193 39.3407 132.654 38.2373 132.667L37.6612 132.674L37.6519 131.902L38.228 131.895C39.0873 131.885 39.6773 131.4 39.6685 130.667C39.66 129.964 39.1368 129.492 38.336 129.501C37.5841 129.51 36.8959 129.939 36.8651 130.632L36.0156 130.643C36.0509 129.519 37.077 128.755 38.3367 128.74C39.6842 128.723 40.515 129.592 40.5174 130.608C40.5368 131.409 40.0752 132.01 39.3356 132.224L39.3362 132.273C40.2558 132.408 40.83 133.056 40.831 133.954C40.8547 135.116 39.8007 135.988 38.3945 136.005ZM45.1232 131.91L45.1325 132.682L42.037 132.719L42.0278 131.948L45.1232 131.91ZM48.7649 135.881C47.1927 135.9 46.2785 134.592 46.2508 132.278C46.2232 129.983 47.1251 128.634 48.6777 128.616C50.2303 128.597 51.1643 129.924 51.1918 132.219C51.2196 134.533 50.3273 135.862 48.7649 135.881ZM48.7555 135.099C49.7711 135.087 50.3544 134.055 50.3325 132.229C50.3106 130.403 49.7024 129.365 48.6869 129.377C47.6713 129.389 47.0784 130.442 47.1003 132.268C47.1222 134.094 47.7302 135.112 48.7555 135.099ZM54.6734 128.544C55.8941 128.539 57.2505 129.255 57.2817 131.862C57.3118 134.372 56.3034 135.79 54.6434 135.81C53.4032 135.825 52.5152 135.074 52.326 133.953L53.1951 133.943C53.3589 134.575 53.843 135.038 54.634 135.029C55.7862 135.015 56.4774 134.011 56.4665 132.292L56.3689 132.293C55.9658 132.884 55.3255 133.243 54.5736 133.252C53.3042 133.267 52.2477 132.313 52.2313 130.946C52.2155 129.628 53.1695 128.552 54.6734 128.544ZM54.6826 129.315C53.755 129.326 53.0703 130.057 53.0905 130.926C53.1011 131.805 53.7636 132.49 54.6913 132.479C55.6092 132.468 56.3227 131.698 56.3127 130.868C56.303 130.057 55.6201 129.304 54.6826 129.315ZM61.5381 131.714L61.5473 132.485L58.4518 132.522L58.4426 131.751L61.5381 131.714ZM65.1797 135.684C63.6076 135.703 62.6934 134.395 62.6656 132.081C62.6381 129.786 63.5399 128.437 65.0926 128.419C66.6452 128.4 67.5791 129.727 67.6067 132.022C67.6344 134.336 66.7421 135.665 65.1797 135.684ZM65.1703 134.903C66.1859 134.89 66.7693 133.858 66.7473 132.032C66.7254 130.206 66.1173 129.168 65.1017 129.18C64.0861 129.193 63.4933 130.245 63.5152 132.071C63.5371 133.897 64.145 134.915 65.1703 134.903ZM71.2828 135.611C70.0522 135.606 68.6959 134.899 68.6646 132.282C68.6346 129.783 69.643 128.364 71.3031 128.344C72.5432 128.329 73.4214 129.081 73.6203 130.192L72.7512 130.202C72.5777 129.579 72.1034 129.116 71.3124 129.125C70.1504 129.139 69.469 130.144 69.4894 131.843L69.5773 131.842C69.9804 131.251 70.6207 130.892 71.3823 130.882C72.642 130.867 73.6986 131.831 73.715 133.198C73.7309 134.526 72.7672 135.603 71.2828 135.611ZM71.2735 134.839C72.1914 134.828 72.8663 134.097 72.8655 133.218C72.8453 132.349 72.1825 131.644 71.2549 131.656C70.3272 131.667 69.6234 132.427 69.6237 133.267C69.6337 134.097 70.3263 134.851 71.2735 134.839Z" fill="black"/>
</svg>
